<svg xmlns="http://www.w3.org/2000/svg" viewBox="0 0 16 11">
  <defs>
    <style>
      .cls-1 {
        fill: #7f7f7f;
      }
    </style>
  </defs>
  <path id="Combined_Shape" data-name="Combined Shape" class="cls-1" d="M8,11A8.538,8.538,0,0,1,2.136,8.25,13.8,13.8,0,0,1,0,5.5,13.9,13.9,0,0,1,2.136,2.75,8.538,8.538,0,0,1,8,0a8.538,8.538,0,0,1,5.864,2.75A13.8,13.8,0,0,1,16,5.5a13.9,13.9,0,0,1-2.136,2.75A8.538,8.538,0,0,1,8,11Zm.206-8.024a2.5,2.5,0,1,0,2.5,2.5A2.5,2.5,0,0,0,8.206,2.975Z"/>
</svg>
