<svg xmlns="http://www.w3.org/2000/svg" xmlns:xlink="http://www.w3.org/1999/xlink" width="31" height="32" viewBox="0 0 31 32"><defs><path id="cql6a" d="M64 622.4c0-4.42 5.6-8 12.53-8 6.91 0 12.52 3.58 12.52 8s-5.6 8-12.52 8-12.53-3.58-12.53-8z"/><path id="cql6c" d="M80.14 627c0-3.87 3.17-7 7.08-7 3.9 0 7.07 3.13 7.07 7s-3.17 7-7.08 7a7.04 7.04 0 0 1-7.07-7z"/><path id="cql6e" d="M69.27 611.25a7.21 7.21 0 0 1 7.25-7.17c4 0 7.25 3.21 7.25 7.17a7.21 7.21 0 0 1-7.25 7.18c-4 0-7.25-3.21-7.25-7.17z"/><path id="cql6g" d="M87.47 624.99v4.4"/><path id="cql6h" d="M89.78 627.13h-4.66"/><linearGradient id="cql6b" x1="59.52" x2="92.21" y1="622.39" y2="622.39" gradientUnits="userSpaceOnUse"><stop offset="0" stop-color="#1770f7"/><stop offset="1" stop-color="#72a8ff"/></linearGradient><linearGradient id="cql6d" x1="77.61" x2="96.06" y1="627" y2="627" gradientUnits="userSpaceOnUse"><stop offset="0" stop-color="#1770f7"/><stop offset="1" stop-color="#72a8ff"/></linearGradient><linearGradient id="cql6f" x1="66.68" x2="85.6" y1="611.25" y2="611.25" gradientUnits="userSpaceOnUse"><stop offset="0" stop-color="#1770f7"/><stop offset="1" stop-color="#72a8ff"/></linearGradient></defs><g><g transform="translate(-64 -603)"><g><use fill="url(#cql6b)" xlink:href="#cql6a"/></g><g><use fill="url(#cql6d)" xlink:href="#cql6c"/><use fill="#fff" fill-opacity="0" stroke="#fff" stroke-miterlimit="50" xlink:href="#cql6c"/></g><g><use fill="url(#cql6f)" xlink:href="#cql6e"/><use fill="#fff" fill-opacity="0" stroke="#fff" stroke-miterlimit="50" xlink:href="#cql6e"/></g><g><use fill="#fff" fill-opacity="0" stroke="#fff" stroke-linecap="round" stroke-linejoin="round" stroke-miterlimit="50" xlink:href="#cql6g"/></g><g><use fill="#fff" fill-opacity="0" stroke="#fff" stroke-linecap="round" stroke-linejoin="round" stroke-miterlimit="50" xlink:href="#cql6h"/></g></g></g></svg>