<svg xmlns="http://www.w3.org/2000/svg" xmlns:xlink="http://www.w3.org/1999/xlink" width="32" height="32" viewBox="0 0 32 32"><defs><path id="314wa" d="M75.48 1281.4v-1.78h1.78v1.78zm1.61-3.4h-1.61l-.01-.42c0-.53.09-.96.26-1.3.17-.34.52-.72 1.04-1.14.52-.42.83-.7.93-.83.16-.21.24-.44.24-.69 0-.35-.14-.64-.42-.89a1.62 1.62 0 0 0-1.12-.37c-.45 0-.83.13-1.13.39-.3.25-.52.65-.63 1.18l-1.64-.2c.05-.76.37-1.4.97-1.94.6-.53 1.38-.79 2.36-.79 1.02 0 1.83.27 2.44.8.6.54.9 1.16.9 1.87 0 .4-.1.77-.33 1.12-.22.35-.7.83-1.42 1.43-.38.32-.61.57-.7.76-.1.19-.13.53-.13 1.02z"/><path id="314wc" d="M76 1289.78a13.79 13.79 0 1 0 0-27.57 13.79 13.79 0 0 0 0 27.57zm0 2.22a16 16 0 1 1 0-32 16 16 0 0 1 0 32z"/><linearGradient id="314wb" x1="71.81" x2="80.52" y1="1276.2" y2="1276.2" gradientUnits="userSpaceOnUse"><stop offset="0" stop-color="#1770f7"/><stop offset="1" stop-color="#72a8ff"/></linearGradient><linearGradient id="314wd" x1="54.28" x2="96.04" y1="1276" y2="1276" gradientUnits="userSpaceOnUse"><stop offset="0" stop-color="#1770f7"/><stop offset="1" stop-color="#72a8ff"/></linearGradient></defs><g><g opacity=".9" transform="translate(-60 -1260)"><g opacity=".9"><use fill="url(#314wb)" xlink:href="#314wa"/></g><g opacity=".9"><use fill="url(#314wd)" xlink:href="#314wc"/></g></g></g></svg>