<svg xmlns="http://www.w3.org/2000/svg" xmlns:xlink="http://www.w3.org/1999/xlink" width="52" height="48" viewBox="0 0 52 48"><defs><path id="th6fa" d="M50.19 50.14h29.48v36.64H50.19z"/><path id="th6fc" d="M74.83 50.14l4.84 26.97a43.63 43.63 0 0 0-20.7 9.67c-.03-.03-6.83-17.94-6.83-17.94l-1.95-5.28a43.56 43.56 0 0 1 24.64-13.42"/><path id="th6fd" d="M94 88l-9.95 10L83 91.83A37.68 37.68 0 0 0 94 88"/><path id="th6fe" d="M97.67 59L102 83.07a43.18 43.18 0 0 1-20.1 9.15c-2.93.5-15.25 3.01-23.18-4.88L51.94 69.1 50 63.9a43.49 43.49 0 0 0 27.58 4.26A43.48 43.48 0 0 0 97.68 59"/><clipPath id="th6fb"><use xlink:href="#th6fa"/></clipPath></defs><g><g transform="translate(-50 -50)"><g><g/><g clip-path="url(#th6fb)"><use fill="#68a2fe" xlink:href="#th6fc"/></g></g><g><use fill="#2478f8" xlink:href="#th6fd"/></g><g><use fill="#2478f8" xlink:href="#th6fe"/></g></g></g></svg>