<svg xmlns="http://www.w3.org/2000/svg" xmlns:xlink="http://www.w3.org/1999/xlink" width="33" height="32" viewBox="0 0 33 32"><defs><path id="n29ba" d="M76.62 476.63a2 2 0 0 1 2.83-.05l8.53 8.24a2 2 0 0 1 .05 2.83l-.05.05a2 2 0 0 1-2.83.05l-8.53-8.24a2 2 0 0 1-.05-2.83z"/><path id="n29bc" d="M60.76 493.38a1.85 1.85 0 0 1 2.61-.05l8.5 8.21a1.85 1.85 0 0 1-2.57 2.66l-8.5-8.2a1.85 1.85 0 0 1-.04-2.62z"/><path id="n29be" d="M66.6 489.68l.25.25 6.57-6.8a1.95 1.95 0 0 1 2.7-2.81l8.45 8.15a1.95 1.95 0 0 1-2.71 2.81l-.12-.12-1.63 1.69c.1.07.2.14.3.23l11.78 11.38a2 2 0 0 1 .05 2.83l-.16.17a2 2 0 0 1-2.83.05l-11.78-11.38c-.1-.1-.18-.19-.25-.3l-2.05 2.14a1.93 1.93 0 0 1-2.74 2.7l-8.51-8.22a1.93 1.93 0 0 1 2.67-2.77z"/><linearGradient id="n29bb" x1="71.53" x2="92.24" y1="482.17" y2="482.17" gradientUnits="userSpaceOnUse"><stop offset="0" stop-color="#1770f7"/><stop offset="1" stop-color="#72a8ff"/></linearGradient><linearGradient id="n29bd" x1="55.81" x2="76.06" y1="498.77" y2="498.77" gradientUnits="userSpaceOnUse"><stop offset="0" stop-color="#1770f7"/><stop offset="1" stop-color="#72a8ff"/></linearGradient><linearGradient id="n29bf" x1="58.06" x2="96.57" y1="493.8" y2="493.8" gradientUnits="userSpaceOnUse"><stop offset="0" stop-color="#1770f7"/><stop offset="1" stop-color="#72a8ff"/></linearGradient></defs><g><g transform="translate(-60 -476)"><g><use fill="url(#n29bb)" xlink:href="#n29ba"/></g><g><use fill="url(#n29bd)" xlink:href="#n29bc"/></g><g><use fill="url(#n29bf)" xlink:href="#n29be"/></g></g></g></svg>