<svg xmlns="http://www.w3.org/2000/svg" xmlns:xlink="http://www.w3.org/1999/xlink" width="41" height="24" viewBox="0 0 41 24"><defs><path id="1yqia" d="M60.06 732.83a3 3 0 0 1 3-3h25.88a3 3 0 0 1 3 3v17.09a3 3 0 0 1-3 3H63.06a3 3 0 0 1-3-3z"/><path id="1yqic" d="M60.35 732.4a2 2 0 0 1 0-2.83l14.01-14a2 2 0 0 1 2.83 0l13.9 13.9a2 2 0 0 1 0 2.83l-15.41 15.42z"/><linearGradient id="1yqib" x1="54.36" x2="95.96" y1="741.37" y2="741.37" gradientUnits="userSpaceOnUse"><stop offset="0" stop-color="#1770f7"/><stop offset="1" stop-color="#72a8ff"/></linearGradient><linearGradient id="1yqid" x1="59.57" x2="90.63" y1="730.94" y2="730.94" gradientUnits="userSpaceOnUse"><stop offset="0" stop-color="#1770f7"/><stop offset="1" stop-color="#72a8ff"/></linearGradient></defs><g><g transform="translate(-51 -729)"><g><g><use fill="url(#1yqib)" xlink:href="#1yqia"/></g><g><use fill="url(#1yqid)" xlink:href="#1yqic"/><use fill="#fff" fill-opacity="0" stroke="#fff" stroke-miterlimit="50" xlink:href="#1yqic"/></g></g></g></g></svg>