<svg xmlns="http://www.w3.org/2000/svg" xmlns:xlink="http://www.w3.org/1999/xlink" width="27" height="30" viewBox="0 0 27 30"><defs><path id="suora" d="M63 847c0-1.1.9-2 2-2h2a2 2 0 0 1 2 2v26a2 2 0 0 1-2 2h-2a2 2 0 0 1-2-2z"/><path id="suorc" d="M70 857c0-1.1.9-2 2-2h2a2 2 0 0 1 2 2v16a2 2 0 0 1-2 2h-2a2 2 0 0 1-2-2z"/><path id="suore" d="M77 847c0-1.1.9-2 2-2h2a2 2 0 0 1 2 2v26a2 2 0 0 1-2 2h-2a2 2 0 0 1-2-2z"/><path id="suorg" d="M84 867c0-1.1.9-2 2-2h2a2 2 0 0 1 2 2v6a2 2 0 0 1-2 2h-2a2 2 0 0 1-2-2z"/><linearGradient id="suorb" x1="61.93" x2="69.76" y1="860" y2="860" gradientUnits="userSpaceOnUse"><stop offset="0" stop-color="#1770f7"/><stop offset="1" stop-color="#72a8ff"/></linearGradient><linearGradient id="suord" x1="68.93" x2="76.76" y1="865" y2="865" gradientUnits="userSpaceOnUse"><stop offset="0" stop-color="#1770f7"/><stop offset="1" stop-color="#72a8ff"/></linearGradient><linearGradient id="suorf" x1="75.93" x2="83.76" y1="860" y2="860" gradientUnits="userSpaceOnUse"><stop offset="0" stop-color="#1770f7"/><stop offset="1" stop-color="#72a8ff"/></linearGradient><linearGradient id="suorh" x1="82.93" x2="90.76" y1="870" y2="870" gradientUnits="userSpaceOnUse"><stop offset="0" stop-color="#1770f7"/><stop offset="1" stop-color="#72a8ff"/></linearGradient></defs><g><g transform="translate(-63 -845)"><g><use fill="url(#suorb)" xlink:href="#suora"/></g><g><use fill="url(#suord)" xlink:href="#suorc"/></g><g><use fill="url(#suorf)" xlink:href="#suore"/></g><g><use fill="url(#suorh)" xlink:href="#suorg"/></g></g></g></svg>